#!OML:ASF E:/inclinewalkrobotboard/Project1/Captureday1/Session1/subject1.ASF
:FULLY-SPECIFIED
:DEGREES
163
root 0 0 0 1.1080953998225898 -3.740061746863909 1.8028687080868908
lowerback 11.995289832457303 0.8620162429679863 -0.07698169289693368
upperback -4.182615925651273 1.09103369582637 -0.539663982240615
thorax -11.297457748951182 0.5003904279249776 -0.7746413421533167
lowerneck -5.922473566737104 1.4701926497728537 4.520524854684586
upperneck 18.041221817645635 2.915547095393892 -8.266291617834938
head 6.6160068807469194 1.0617565691523678 -3.194272549672743
rclavicle -1.2291490743716045E-15 3.9674016500049213E-16
rhumerus 19.641357995696556 14.047360557103438 -47.80819663653426
rradius 72.07058593467892
rwrist 27.218753330694142
rhand -34.883657850447534 -57.529348701594444
rfingers 7.125020000000043
rthumb -8.025164266179555 -87.30888812553451
lclavicle 1.0805321101971176E-15 -2.7189284209499874E-15
lhumerus 20.59908932527904 -12.31297840043199 45.61740602988307
lradius 69.53462165287011
lwrist -22.203881623612496
lhand -44.75700858824443 -70.152294644846
lfingers 7.125020000000015
lthumb -17.564821173148033 -41.04568041903819
rfemur -25.19094348835052 -2.162433395629773 16.896478327008943
rtibia 54.19820457255893
rfoot -28.22668123902291 -16.764431206264305
rtoes -17.855127908994962
lfemur -27.442826577385492 2.4822000040677032 -18.26489987684023
ltibia 53.66145533466105
lfoot -31.885710434931028 -3.2531112400649027
ltoes -19.563607172980966
164
root 0 0 0 1.108032667786789 -3.7401139956934886 1.8028528058212898
lowerback 11.995309622734375 0.8620142264110296 -0.076955588322515
upperback -4.182564780777708 1.0910369366767083 -0.5396462964291004
thorax -11.297412134183743 0.5003909769347159 -0.7746382221440855
lowerneck -5.922296739935682 1.470156048571939 4.520577784684481
upperneck 18.041034260232156 2.9155021450767333 -8.266411891405683
head 6.615915879891169 1.0617365644790744 -3.1943225211339143
rclavicle -1.2343337106466616E-15 3.9915453851053837E-16
rhumerus 19.64121620437996 14.047246568230683 -47.80824715028239
rradius 72.07048511611212
rwrist 27.218731142842543
rhand -34.883539744237936 -57.52915682655652
rfingers 7.125020000000043
rthumb -8.025038141587052 -87.30871864461702
lclavicle 1.0728636243791355E-15 -2.715735939286181E-15
lhumerus 20.599364732187706 -12.313430603133854 45.61717272120397
lradius 69.5347635306916
lwrist -22.20383442583045
lhand -44.75687781930398 -70.15082983405509
lfingers 7.125020000000015
lthumb -17.564679391249292 -41.0442212651659
rfemur -25.19119357815588 -2.1624530532661983 16.896459864888136
rtibia 54.19813362365203
rfoot -28.226800239309576 -16.764547846925122
rtoes -17.85485870703529
lfemur -27.442821926184358 2.4822970176899553 -18.264960590378205
ltibia 53.66169852030856
lfoot -31.885869473988613 -3.2530339169376634
ltoes -19.56341418939656
165
root 0 0 0 1.1079784272152517 -3.740157595290178 1.8028401386434916
lowerback 11.995327714556174 0.8620123075533738 -0.07693293206754795
upperback -4.1825186779191315 1.0910396188767986 -0.5396310288099853
thorax -11.297371095263527 0.5003913406840784 -0.774635626971641
lowerneck -5.922135167569051 1.470121917390562 4.5206249186419205
upperneck 18.040862378723983 2.9154596679001643 -8.266519612227231
head 6.615832673080746 1.0617177837400096 -3.1943674591840994
rclavicle -1.2353643695448955E-15 3.992338980944903E-16
rhumerus 19.641285548548737 14.047318658825933 -47.80822129616704
rradius 72.07054706949444
rwrist 27.21874677193202
rhand -34.88350711406782 -57.529191873224626
rfingers 7.125020000000043
rthumb -8.02500947558677 -87.30875356060136
lclavicle 1.0712016196428352E-15 -2.715651054290159E-15
lhumerus 20.599465051504833 -12.313512703903568 45.617068829796665
lradius 69.53483703320414
lwrist -22.203864090076912
lhand -44.75686715757164 -70.1506233611919
lfingers 7.125020000000015
lthumb -17.56466007078244 -41.04401015437878
rfemur -25.191165124514722 -2.16244609276978 16.896480795349
rtibia 54.19811539260581
rfoot -28.22689181709449 -16.764584411443348
rtoes -17.854859318342577
lfemur -27.44286575244631 2.482297896430652 -18.264943901539397
ltibia 53.66166244234313
lfoot -31.885984082353882 -3.2529437561101684
ltoes -19.56357209693775
166
root 0 0 0 1.1079258663131468 -3.740346947130036 1.8027867275790026
lowerback 11.995078322203357 0.8619743885261544 -0.07693605014632537
upperback -4.182667058912184 1.0909850731924235 -0.5396074378749737
thorax -11.29739135604864 0.5003666146337251 -0.7745956740865472
lowerneck -5.922146840647665 1.4702474826632743 4.52055296046721
upperneck 18.04142742971271 2.9156604782766884 -8.266366756235714
head 6.616013186853607 1.0618065728457067 -3.1942942005109662
rclavicle -1.2506662347907276E-15 4.1771697951334783E-16
rhumerus 19.642018137249924 14.047350991565272 -47.80790428516542
rradius 72.0716487680522
rwrist 27.21967780182734
rhand -34.884994628498916 -57.53263002966257
rfingers 7.125020000000043
rthumb -8.026395502954157 -87.31224990804179
lclavicle 1.0370646950279303E-15 -2.692237704222351E-15
lhumerus 20.59972569401368 -12.312169005280309 45.619661701482514
lradius 69.53452929614772
lwrist -22.203110541056894
lhand -44.75898302132423 -70.16146095195673
lfingers 7.125020000000015
lthumb -17.566547756368898 -41.05539039844716
rfemur -25.19005418775192 -2.1624740172843477 16.89561190255057
rtibia 54.19656349180211
rfoot -28.225326954452765 -16.763850767501314
rtoes -17.85633521876955
lfemur -27.441207608141934 2.48168273666384 -18.264033610836407
ltibia 53.65906024309793
lfoot -31.882802395021876 -3.2525921969295983
ltoes -19.56715833373761
167
root 0 0 0 1.1080351485919242 -3.7401370078986975 1.8028451301280213
lowerback 11.995273866146213 0.8620104011855648 -0.07695561384972802
upperback -4.182591169285988 1.091031138724083 -0.5396450087438411
thorax -11.29742027490823 0.5003884741861743 -0.7746349593571882
lowerneck -5.922321722279047 1.4701758284257076 4.520559970545543
upperneck 18.041133722274736 2.9155325073067058 -8.266375118047959
head 6.615951909216486 1.0617499601846512 -3.1943060793391993
rclavicle -1.2284929285042722E-15 3.9667785396062257E-16
rhumerus 19.641540142603617 14.047534680168 -47.80808850176757
rradius 72.07068299402732
rwrist 27.218729566601827
rhand -34.883360257262744 -57.52898285425532
rfingers 7.125020000000043
rthumb -8.0248734686179 -87.30850927297561
lclavicle 1.0815386117858263E-15 -2.7189054147449852E-15
lhumerus 20.599157466782174 -12.313165764479884 45.61722483023034
lradius 69.53473155576738
lwrist -22.20390266346537
lhand -44.75688953023239 -70.1515851993443
lfingers 7.125020000000015
lthumb -17.56471068459781 -41.044965441518706
rfemur -25.190923692015993 -2.162429409689723 16.896488905723274
rtibia 54.198222981028586
rfoot -28.226713502461305 -16.764423330371685
rtoes -17.855130475405904
lfemur -27.44273877240665 2.4822562445796295 -18.26488302027806
ltibia 53.661446029728864
lfoot -31.885718185491385 -3.25306968600196
ltoes -19.563939657992798
168
root 0 0 0 1.1079966493883482 -3.7401589053409614 1.8028387364285263
lowerback 11.995300170393879 0.8620107464389087 -0.0769400013562043
upperback -4.182549917343991 1.0910354252358756 -0.5396349626543759
thorax -11.297389715657971 0.5003898164491207 -0.7746344191631803
lowerneck -5.922205912435675 1.4701459414096536 4.5205988170387945
upperneck 18.04098134406287 2.9154933430632832 -8.266461888495062
head 6.61588292788038 1.0617325783301013 -3.1943426022065813
rclavicle -1.2339584795396363E-15 3.9912771341906886E-16
rhumerus 19.64132441230987 14.04734980921815 -47.80818255059322
rradius 72.0705431082624
rwrist 27.218717663658367
rhand -34.88336348806822 -57.528941194956055
rfingers 7.125020000000043
rthumb -8.024865888078754 -87.30849530941687
lclavicle 1.0734386178070633E-15 -2.7157087451547034E-15
lhumerus 20.599406016761083 -12.313541936722455 45.61706562785453
lradius 69.53482912800301
lwrist -22.20384674054092
lhand -44.75680778203974 -70.15041072547916
lfingers 7.125020000000015
lthumb -17.564614408072153 -41.04379897042054
rfemur -25.191181517684466 -2.1624506433250246 16.89646629717224
rtibia 54.198144458178476
rfoot -28.22681965505803 -16.764543209222566
rtoes -17.85486023675587
lfemur -27.442769801091703 2.4823303256777094 -18.26495036682936
ltibia 53.66169278307894
lfoot -31.885874243552376 -3.2530089747715962
ltoes -19.56361265153613
169
root 0 0 0 1.1079569174419257 -3.7401843893793956 1.8028317439289014
lowerback 11.995322102978065 0.8620102347414025 -0.07692362357094323
upperback -4.182509775772246 1.091038723914748 -0.5396242629497374
thorax -11.297357697925243 0.5003906510750115 -0.774633360809066
lowerneck -5.922080910112859 1.4701158619849504 4.520637499607768
upperneck 18.040830681314905 2.91545438106486 -8.266549506968202
head 6.615812960927289 1.0617153897434886 -3.194379468404809
rclavicle -1.2351380713196057E-15 3.992144003173277E-16
rhumerus 19.641349961788052 14.047380156174807 -47.80818286015403
rradius 72.07058149923968
rwrist 27.21873863805495
rhand -34.883401993308055 -57.52906304291554
rfingers 7.125020000000043
rthumb -8.024906750233384 -87.30862014946337
lclavicle 1.0715479849262374E-15 -2.7156392295606185E-15
lhumerus 20.59948950970458 -12.313578989941664 45.61700485192102
lradius 69.53487603579646
lwrist -22.20387151121556
lhand -44.756825319535814 -70.15037327842668
lfingers 7.125020000000015
lthumb -17.56462124083131 -41.04375814055214
rfemur -25.191157919572483 -2.162444663251782 16.89648464502951
rtibia 54.198121856949314
rfoot -28.22690336547498 -16.76458163012958
rtoes -17.854860284528357
lfemur -27.442834747240646 2.4823177083792487 -18.26493780246226
ltibia 53.66165907604087
lfoot -31.885986936122265 -3.2529289382659443
ltoes -19.563690203933234
170
root 0 0 0 1.1079204759421137 -3.7402245957307323 1.802819206870326
lowerback 11.995319930698113 0.8620076349036758 -0.07690783234957674
upperback -4.182489068702484 1.0910385694904077 -0.539613176162707
thorax -11.297333044270781 0.500390075479743 -0.7746303467344882
lowerneck -5.921983781726157 1.47010117543133 4.520662862226645
upperneck 18.04075546384225 2.915438623368039 -8.266608183189629
head 6.615771822716569 1.0617083257371214 -3.19440346298894
rclavicle -1.234677841014282E-15 3.987290559121322E-16
rhumerus 19.641418518607985 14.047453935520924 -47.80814682134911
rradius 72.07060103192158
rwrist 27.218709551000607
rhand -34.883247984631936 -57.52883612637595
rfingers 7.125020000000043
rthumb -8.024757689307684 -87.30839114494844
lclavicle 1.072218933906806E-15 -2.716259583664379E-15
lhumerus 20.599511015021413 -12.31367149712469 45.616883019959744
lradius 69.53492037833789
lwrist -22.203898213773183
lhand -44.75675305654716 -70.14995232041797
lfingers 7.125020000000015
lthumb -17.56455167827864 -41.04332777392985
rfemur -25.191159192525337 -2.1624450043706047 16.896488545321088
rtibia 54.1981259558044
rfoot -28.22692216109117 -16.764580742075633
rtoes -17.854862595965688
lfemur -27.44280464234201 2.4823365699875906 -18.264931539162713
ltibia 53.66164173745606
lfoot -31.886006633743023 -3.252911603837354
ltoes -19.563830788525507
